<?xml version="1.0" standalone="no"?>
<!DOCTYPE svg PUBLIC "-//W3C//DTD SVG 20010904//EN"
 "http://www.w3.org/TR/2001/REC-SVG-20010904/DTD/svg10.dtd">
<svg version="1.0" xmlns="http://www.w3.org/2000/svg"
 width="1000.000000pt" height="1000.000000pt" viewBox="0 0 1000.000000 1000.000000"
 preserveAspectRatio="xMidYMid meet">
<metadata>
Created by potrace 1.14, written by Peter Selinger 2001-2017
</metadata>
<g transform="translate(0.000000,1000.000000) scale(0.100000,-0.100000)"
fill="#000000" stroke="none">
<path d="M2814 6210 c-110 -55 -331 -338 -438 -563 -51 -107 -54 -123 -28
-130 70 -19 66 -21 133 62 35 43 75 93 89 112 31 41 168 212 209 259 16 19 32
32 36 29 10 -11 -33 -223 -107 -529 -11 -47 -22 -94 -23 -105 -2 -11 -24 -103
-48 -205 -48 -197 -109 -452 -122 -512 -3 -13 -11 -50 -19 -83 -9 -33 -17 -71
-20 -85 -2 -14 -14 -72 -25 -130 -11 -58 -23 -118 -25 -135 -3 -16 -8 -41 -10
-55 -5 -22 -9 -51 -21 -125 -1 -11 -6 -47 -10 -80 -3 -33 -8 -71 -11 -85 -15
-95 -22 -349 -11 -432 15 -113 19 -117 147 -124 85 -4 92 -3 113 19 54 57 68
87 199 412 95 238 146 350 260 565 86 161 153 290 216 410 47 90 232 431 296
545 12 20 37 60 111 175 23 36 63 98 89 139 26 40 49 71 52 68 5 -5 -39 -184
-121 -492 -116 -436 -142 -638 -100 -781 22 -78 90 -121 125 -79 10 13 16 11
44 -10 36 -27 118 -47 162 -39 83 15 161 110 339 411 173 294 311 498 397 588
45 48 46 44 17 -97 -11 -57 -22 -114 -25 -128 -3 -14 -11 -50 -19 -80 -7 -30
-16 -71 -19 -90 -3 -19 -10 -60 -16 -90 -6 -30 -13 -73 -16 -95 -3 -22 -8 -51
-10 -65 -13 -69 -19 -181 -15 -284 1 -45 16 -39 25 9 20 103 33 188 35 223 0
12 5 22 10 22 5 0 7 -12 6 -27 -2 -16 -6 -61 -10 -101 -18 -175 -12 -254 27
-387 13 -45 16 -71 10 -73 -8 -2 -8 -12 -1 -28 13 -36 11 -51 -4 -29 -23 30
-27 2 -7 -40 59 -125 200 -191 406 -189 54 0 80 6 108 22 l37 22 -5 -62 c-3
-33 -8 -69 -11 -78 -3 -9 3 -24 13 -34 20 -17 35 -20 162 -31 41 -4 77 -9 79
-11 23 -22 86 134 165 406 171 591 165 572 222 650 23 31 47 67 54 79 l12 23
15 -24 c107 -158 296 -364 450 -489 43 -35 80 -67 81 -71 2 -5 10 -8 17 -8 7
0 15 -3 17 -7 3 -8 74 -57 113 -79 11 -6 45 -26 75 -44 123 -73 336 -173 447
-209 144 -47 167 -51 318 -57 165 -5 252 19 309 86 42 51 29 101 -30 116 -37
9 -51 -1 -76 -53 -18 -37 -33 -53 -71 -72 -58 -29 -150 -35 -230 -14 -66 17
-230 85 -327 137 -41 22 -85 44 -97 50 -13 6 -23 14 -23 19 0 4 -7 7 -15 7 -8
0 -15 5 -15 10 0 6 -6 10 -12 10 -13 0 -23 7 -131 95 -149 119 -401 402 -572
642 -53 74 -98 140 -101 147 -5 12 84 111 131 146 26 19 154 120 180 142 20
16 113 89 176 138 18 14 37 30 43 35 6 6 40 35 76 65 36 30 72 61 81 70 23 22
126 110 157 134 15 11 29 23 32 27 3 3 57 50 120 104 150 127 538 385 632 420
65 24 75 38 44 59 -60 39 -146 8 -411 -146 -170 -100 -517 -311 -601 -366 -90
-59 -243 -164 -258 -177 -6 -5 -29 -23 -51 -40 -47 -35 -46 -34 -155 -121 -47
-37 -87 -70 -90 -74 -3 -3 -39 -35 -80 -70 -41 -36 -81 -71 -88 -78 -8 -7 -16
-12 -17 -10 -6 5 23 145 59 288 23 90 36 160 42 217 3 37 8 71 10 74 2 4 -3
12 -11 19 -16 14 -16 14 -20 -15 -1 -11 -12 -56 -23 -100 -12 -44 -24 -96 -27
-115 -4 -29 -9 -52 -20 -100 -1 -3 -7 -38 -14 -77 -7 -40 -17 -73 -23 -73 -5
0 -7 8 -4 18 3 9 8 31 11 47 2 17 9 55 15 85 5 30 12 71 15 90 3 19 15 80 26
135 12 54 19 114 16 132 -7 38 26 183 48 217 10 15 12 26 6 30 -11 7 -5 28 29
98 11 23 20 45 20 49 0 11 -79 40 -114 41 -46 2 -69 -14 -95 -68 -29 -56 -69
-99 -176 -186 -156 -127 -354 -233 -474 -253 -57 -10 -80 33 -44 84 l16 24
-44 -7 c-56 -9 -81 -37 -67 -77 12 -34 36 -50 113 -74 79 -24 161 -22 268 10
88 25 217 82 217 95 0 4 13 13 29 20 16 6 38 23 48 36 21 28 43 32 39 7 -2
-10 -6 -39 -10 -64 -11 -75 -16 -98 -47 -229 -17 -69 -32 -134 -34 -144 -3
-10 -9 -33 -14 -50 -31 -105 -54 -186 -84 -296 -129 -467 -179 -615 -251 -745
-31 -55 -63 -122 -72 -150 -9 -27 -31 -78 -50 -112 -18 -36 -28 -63 -21 -63
18 0 -83 -99 -140 -136 -28 -18 -69 -36 -90 -39 -32 -5 -43 -2 -69 22 -42 37
-79 98 -102 168 -23 68 -22 185 2 355 3 19 8 54 11 77 8 60 16 108 30 188 2
11 17 88 34 170 67 326 83 424 86 525 3 121 -5 148 -62 207 -41 43 -93 69
-163 81 -111 20 -169 -7 -305 -143 -152 -151 -275 -316 -467 -625 -36 -58 -73
-120 -82 -138 -10 -19 -19 -32 -21 -30 -2 2 7 53 21 113 13 61 27 124 30 140
3 17 9 46 14 65 5 19 11 49 14 65 3 17 7 39 10 50 2 11 23 101 45 200 23 99
44 191 48 205 3 14 7 30 9 35 78 309 101 478 72 534 -46 91 -224 158 -298 113
-30 -18 -67 -58 -123 -132 -23 -30 -44 -57 -47 -60 -3 -3 -42 -54 -86 -115
-197 -269 -369 -556 -535 -893 -182 -369 -275 -565 -323 -677 -26 -60 -54
-123 -61 -140 -7 -16 -37 -99 -66 -182 -29 -84 -57 -153 -62 -153 -4 0 -6 8
-3 18 3 9 8 40 11 67 4 28 15 104 26 170 11 66 22 134 25 150 2 17 6 41 9 55
3 14 7 39 10 55 2 17 14 73 25 125 11 52 23 109 26 125 3 17 10 48 15 70 6 22
13 48 15 59 5 27 53 228 76 316 10 41 21 86 24 100 3 14 10 43 16 65 5 22 11
47 13 55 2 8 11 47 20 85 9 39 19 81 21 95 3 14 23 106 45 205 22 99 41 194
44 210 2 17 6 44 9 60 2 17 7 66 11 110 4 44 8 95 10 113 3 42 -28 90 -80 119
-50 28 -98 29 -151 3z m3041 -389 c-3 -6 -11 -11 -17 -11 -6 0 -6 6 2 15 14
17 26 13 15 -4z m-2655 -949 c0 -5 -7 -17 -16 -28 -8 -10 -14 -14 -11 -9 2 6
7 18 10 28 7 17 17 23 17 9z m-68 -144 c-73 -153 -102 -223 -99 -232 2 -6 16
8 32 32 15 23 30 41 32 38 2 -2 -39 -90 -92 -196 -53 -106 -116 -234 -140
-286 -24 -52 -46 -94 -49 -94 -6 0 -7 -2 67 181 31 75 63 163 72 195 18 63 20
69 120 277 37 77 69 136 72 133 3 -3 -4 -24 -15 -48z m-498 -132 c-4 -32 -2
-56 4 -59 8 -6 -73 -359 -92 -400 -6 -13 1 151 8 198 9 50 37 166 72 293 11
38 14 24 8 -32z m1093 22 c-3 -8 -6 -5 -6 6 -1 11 2 17 5 13 3 -3 4 -12 1 -19z
m-606 -11 c-10 -9 -11 -8 -5 6 3 10 9 15 12 12 3 -3 0 -11 -7 -18z m604 -87
c0 -44 -3 -80 -7 -80 -10 0 -11 144 -1 153 3 4 7 7 7 7 1 0 1 -36 1 -80z m942
48 c-3 -8 -6 -5 -6 6 -1 11 2 17 5 13 3 -3 4 -12 1 -19z m-694 -49 c-19 -32
-64 -78 -48 -49 13 25 56 80 61 80 3 0 -3 -14 -13 -31z m-25 -137 c-13 -16
-25 -25 -26 -20 -4 8 35 48 45 48 3 0 -6 -13 -19 -28z"/>
<path d="M7390 4000 c-11 -11 -20 -30 -20 -43 0 -31 35 -67 65 -67 30 0 65 36
65 67 0 30 -34 63 -65 63 -14 0 -34 -9 -45 -20z"/>
</g>
</svg>
